# xmcd
#
# Track frame offsets: 
#        182
#        16910
#        33812
#        51470
#        69575
#        81175
#        120577
#        134247
#        155355
#
# Disc length: 2360 seconds
#
# Revision: 3
# Processed by: cddbd v1.5.2PL0 Copyright (c) Steve Scherf et al.
# Submitted via: ExactAudioCopy v0.99pb5
#
DISCID=76093609
DTITLE=Eric Clapton - Slowhand (823 276-2)
DYEAR=1977
DGENRE=Blues
TTITLE0=Cocaine
TTITLE1=Wonderful Tonight
TTITLE2=Lay Down Sally
TTITLE3=Next Time You See Her
TTITLE4=We´re All The Way
TTITLE5=The Core
TTITLE6=May You Never
TTITLE7=Mean Old Frisco
TTITLE8=Peaches And Diesel
EXTD=RSO RECORDS, INC ., NEW YORK\nAAD YEAR: 1977
EXTT0=J.J.CALE-AUDIGRAM MUSIC INC./ORIGINAL PUB
EXTT1=ERIC CLAPTON-THROAT MUSIK LTD.
EXTT2=MARCY LEVY/ERIK CLAPTON-RSO PUBLISHING LTD. - TKROAT
EXTT3=ERIC CLAPTON-THROAT MUSIC LTD.
EXTT4=DON WILLIAMS - JACK MUSIC INC./ORIGINAL PUB
EXTT5=MARCY LEVY/ERIC CLAPTON RSO PUBLISHING LTD./THROAT
EXTT6=JOHN MARTYN- WARLOCK MUSIC FOR WORLD
EXTT7=ERIC CLAPTON- THROAT MUSIC LTD.
EXTT8=ALBHY. GALUTEN/ERIC CLAPTON- THROAT MUSIC LTD.
PLAYORDER=
